<!DOCTYPE svg PUBLIC "-//W3C//DTD SVG 20010904//EN" "http://www.w3.org/TR/2001/REC-SVG-20010904/DTD/svg10.dtd">
<svg version="1.0" xmlns="http://www.w3.org/2000/svg" width="280px" height="338px" viewBox="0 0 2800 3380" preserveAspectRatio="xMidYMid meet">
<g id="layer1" fill="#cea28a" stroke="none">
 <path d="M260 2650 l0 -530 1140 0 1140 0 0 530 0 530 -1140 0 -1140 0 0 -530z"/>
 </g>
<g id="layer2" fill="#72cfe7" stroke="none">
 <path d="M675 2060 c-26 -51 -26 -51 120 -65 l60 -6 -78 50 c-42 28 -79 51 -82 51 -2 0 -11 -13 -20 -30z"/>
 <path d="M1087 2058 c64 -107 80 -127 96 -128 23 0 22 5 -21 85 -32 58 -43 71 -67 73 l-28 4 20 -34z"/>
 <path d="M1576 2003 c-181 -7 -331 -15 -334 -17 -6 -7 60 -126 68 -121 4 2 166 14 360 25 195 12 356 22 357 24 2 2 6 26 10 55 l6 51 -69 -1 c-38 -1 -217 -8 -398 -16z"/>
 <path d="M2295 1959 c-38 -16 -96 -37 -128 -46 -57 -16 -58 -15 -81 6 l-23 22 -7 -38 c-10 -64 -11 -63 57 -63 92 0 238 59 259 106 19 42 -1 45 -77 13z"/>
 <path d="M609 1945 c-8 -8 -270 -36 -280 -30 -5 4 -14 -6 -19 -21 -8 -21 -7 -38 6 -74 l17 -46 56 7 c31 4 95 10 142 14 l86 7 -1 74 c0 41 -1 74 -2 74 0 0 -3 -2 -5 -5z"/>
 <path d="M645 1864 c3 -27 10 -52 13 -56 4 -3 38 5 76 19 l68 26 -58 22 c-115 43 -108 44 -99 -11z"/>
 <path d="M1152 1887 c-24 -7 -42 -16 -41 -22 3 -10 229 -170 229 -161 0 15 -124 196 -134 195 -6 -1 -30 -6 -54 -12z"/>
 <path d="M670 1749 c0 -28 24 -100 37 -111 13 -10 23 -4 61 37 l46 48 -64 19 c-76 21 -80 21 -80 7z"/>
 <path d="M1910 1747 l-85 -9 50 -45 c80 -70 78 -70 101 3 11 35 20 63 19 63 0 -1 -38 -6 -85 -12z"/>
 <path d="M2270 1731 c-14 -5 -44 -18 -68 -30 -39 -20 -49 -21 -100 -11 -31 6 -64 13 -73 16 -13 3 -21 -7 -32 -40 l-15 -44 60 -12 c70 -13 96 -9 201 32 59 23 79 36 83 54 10 41 -5 50 -56 35z"/>
 <path d="M1510 1719 c-58 -5 -111 -7 -118 -4 -8 3 -7 -5 4 -28 23 -45 115 -177 123 -177 4 0 25 37 47 83 l39 82 80 27 80 26 -75 0 c-41 -1 -122 -5 -180 -9z"/>
 <path d="M1715 1681 l-90 -28 -37 -79 c-20 -43 -35 -80 -34 -81 3 -3 399 47 403 50 1 1 -1 13 -4 27 -4 20 -131 143 -145 139 -1 0 -43 -13 -93 -28z"/>
 <path d="M623 1674 c9 -16 -3 -24 -115 -73 l-96 -43 41 -69 c23 -38 46 -69 50 -69 4 0 50 36 102 79 l94 79 -31 44 c-31 44 -57 74 -45 52z"/>
 <path d="M1323 1637 c-17 -7 -34 -15 -37 -18 -3 -3 53 -61 125 -129 92 -87 130 -117 125 -100 -4 14 -10 34 -13 45 -8 29 -145 215 -158 214 -5 0 -24 -6 -42 -12z"/>
 <path d="M856 1546 l-59 -34 53 -56 c29 -31 56 -56 60 -56 4 0 11 30 15 68 3 37 9 77 12 90 7 31 -11 28 -81 -12z"/>
 <path d="M732 1408 c-20 -29 -58 -81 -84 -116 l-48 -63 43 -42 c23 -23 57 -53 75 -66 l33 -23 55 119 c31 65 63 125 70 134 13 14 8 22 -40 63 -30 25 -57 46 -60 46 -3 0 -23 -24 -44 -52z"/>
 <path d="M1970 1447 c-8 -8 -390 -48 -400 -42 -9 5 -5 -18 12 -73 5 -18 14 -29 20 -26 6 4 92 24 191 45 99 22 182 41 185 43 2 2 2 16 0 31 -2 15 -5 25 -8 22z"/>
 <path d="M1051 1353 l-42 -46 33 -34 c17 -18 35 -30 39 -26 7 9 22 153 15 153 -2 0 -23 -21 -45 -47z"/>
 <path d="M1502 1204 c51 -59 105 -120 120 -138 27 -30 26 -29 -12 71 -21 56 -42 117 -45 137 l-7 36 -75 0 -74 0 93 -106z"/>
 <path d="M986 1269 c-10 -27 -93 -244 -100 -260 -5 -12 4 -26 32 -48 l40 -31 83 97 c46 54 87 100 91 103 4 3 -26 39 -67 80 -51 51 -76 69 -79 59z"/>
 <path d="M1833 1181 c-89 -37 -165 -70 -169 -74 -4 -3 10 -44 32 -90 l38 -83 132 103 c73 57 138 103 144 103 8 0 10 8 6 23 -3 12 -6 37 -6 55 0 17 -3 31 -7 31 -5 -1 -81 -31 -170 -68z"/>
 <path d="M1253 1220 c-22 -10 -49 -31 -61 -47 l-21 -30 43 -42 42 -42 14 28 c59 128 61 132 42 142 -13 7 -30 4 -59 -9z"/>
 <path d="M2102 1077 c-6 -7 -58 -47 -116 -88 -57 -40 -101 -76 -97 -79 4 -3 11 -23 16 -45 9 -36 15 -42 55 -55 56 -18 56 -18 43 -31 -13 -13 -85 5 -107 26 -8 8 -17 33 -21 55 -4 22 -9 40 -12 40 -4 0 -21 -11 -40 -26 -18 -14 -38 -22 -43 -19 -6 4 0 -15 12 -40 20 -42 32 -52 99 -85 l76 -39 18 32 c10 18 26 41 37 53 19 21 18 22 -7 89 -14 37 -25 72 -25 77 0 5 21 6 49 2 l49 -6 30 53 c17 30 35 59 41 66 8 9 6 15 -8 23 -26 13 -36 13 -49 -3z"/>
 <path d="M1191 942 c-30 -48 -63 -97 -73 -108 -19 -22 -19 -22 0 -35 10 -8 21 -21 24 -29 3 -9 31 22 78 85 40 55 77 103 82 106 4 3 -7 19 -25 37 l-32 31 -54 -87z"/>
 <path d="M1620 935 c-25 -25 -30 -36 -19 -40 60 -22 129 -43 129 -40 0 16 -56 115 -65 115 -6 0 -26 -16 -45 -35z"/>
 <path d="M1403 943 c-28 -5 -28 -7 -2 -49 25 -41 35 -43 43 -6 4 15 9 35 12 45 5 17 -4 19 -53 10z"/>
 <path d="M1307 760 c-43 -54 -87 -107 -98 -119 -44 -47 -3 -36 116 32 68 40 125 74 125 77 0 3 -15 28 -33 56 l-32 51 -78 -97z"/>
 <path d="M1516 697 c4 -12 14 -39 23 -61 l17 -39 38 52 c21 29 37 53 35 55 -2 2 -30 6 -62 9 -56 5 -58 5 -51 -16z"/>
 <path d="M1498 614 c-3 -3 -65 -21 -138 -39 -74 -19 -134 -36 -135 -37 -2 -2 -5 -12 -9 -24 -5 -17 7 -29 71 -74 43 -30 80 -58 81 -62 5 -11 33 -10 69 2 24 9 36 25 61 83 33 73 36 94 26 135 -6 22 -15 27 -26 16z"/>
 <path d="M1520 440 c-11 -21 -20 -46 -20 -54 0 -30 217 -30 227 0 3 9 -21 22 -154 80 l-33 14 -20 -40z"/>
 <path d="M1120 405 c-10 -13 -7 -17 25 -31 20 -8 46 -14 58 -12 18 3 14 7 -21 31 -49 32 -46 31 -62 12z"/>
 <path d="M1390 337 c-19 -6 -36 -11 -38 -13 -8 -5 29 -109 45 -126 30 -33 49 -23 61 35 13 58 4 111 -19 114 -8 0 -30 -4 -49 -10z"/>
 <path d="M1203 277 c-41 -85 22 -89 82 -6 l35 49 -48 0 c-47 0 -49 -1 -69 -43z"/>
 </g>
<g id="layer3" fill="#000000" stroke="none">
 <path d="M230 2650 l0 -560 50 0 c28 0 50 -3 50 -6 0 -3 -14 -53 -31 -112 l-30 -107 53 -151 c44 -126 72 -182 167 -345 l115 -194 255 -205 255 -206 38 -119 37 -119 -61 -68 c-69 -78 -68 -80 12 -113 25 -10 46 -20 48 -21 2 -1 -7 -22 -19 -47 -21 -44 -22 -47 -5 -72 16 -24 21 -26 59 -20 23 4 42 8 43 9 1 0 15 20 32 44 l31 43 11 -38 c7 -21 19 -47 28 -59 21 -24 82 -48 94 -36 18 18 38 118 32 158 l-6 41 54 -9 c29 -4 85 -6 125 -2 58 5 76 11 94 30 30 32 21 40 -91 89 -47 21 -90 42 -97 47 -22 17 -1 71 55 141 30 38 50 73 46 77 -5 5 -45 13 -89 19 -68 9 -84 15 -107 40 l-26 29 25 87 c14 47 23 89 20 92 -3 3 -35 -2 -71 -10 l-66 -15 -35 39 c-19 22 -35 42 -35 47 0 4 16 43 35 87 19 44 35 85 35 90 0 6 -14 18 -32 28 -30 17 -32 17 -84 -4 -29 -13 -58 -32 -65 -45 -15 -30 -20 -30 -46 -1 -20 21 -21 27 -11 115 7 70 7 96 -2 107 -19 23 -28 19 -74 -32 -42 -46 -43 -47 -75 -33 -27 11 -31 17 -27 39 3 14 10 64 16 110 10 74 9 86 -5 100 -15 15 -22 13 -85 -21 -38 -21 -73 -38 -78 -38 -4 0 -16 14 -26 32 l-19 31 42 39 c23 22 44 52 47 67 6 27 3 28 -62 47 l-69 20 78 29 c42 16 77 35 77 41 0 6 -45 26 -100 45 -89 30 -99 36 -94 54 4 11 7 21 8 22 0 1 53 -5 116 -12 63 -8 123 -14 133 -15 28 0 20 24 -15 45 -18 10 -60 36 -93 57 l-60 38 137 0 138 0 55 -85 c30 -47 55 -87 55 -89 0 -2 -23 -9 -50 -16 -29 -7 -49 -17 -47 -24 1 -6 63 -52 137 -102 74 -50 135 -95 137 -101 2 -6 -17 -16 -42 -23 -25 -7 -45 -18 -43 -24 2 -6 68 -72 147 -146 l143 -135 -81 -3 c-47 -2 -81 -7 -81 -13 0 -6 64 -83 142 -171 l142 -161 -52 -48 c-29 -26 -52 -52 -52 -56 0 -5 48 -25 106 -43 97 -32 109 -38 131 -72 18 -30 45 -49 123 -88 84 -42 109 -50 155 -50 39 0 55 4 55 13 0 7 9 31 19 53 11 22 23 53 27 69 7 27 6 28 -25 23 -30 -4 -32 -3 -26 24 6 26 4 28 -23 28 -24 0 -32 6 -41 30 -11 34 2 41 19 9 6 -11 17 -18 23 -16 7 2 20 -2 29 -11 14 -12 21 -12 32 -2 13 10 17 5 27 -34 6 -25 17 -46 24 -46 7 0 20 19 29 43 13 34 23 45 49 52 31 10 32 12 29 59 -2 46 -6 52 -70 111 -51 49 -80 67 -124 81 -52 15 -58 20 -62 48 -3 17 -17 108 -31 201 -14 94 -28 181 -32 194 -6 23 -5 23 38 15 77 -16 141 -8 225 27 43 17 84 36 91 41 20 16 26 68 12 95 -12 22 -17 24 -58 18 -25 -4 -67 -18 -93 -31 -44 -22 -50 -23 -110 -11 -62 13 -63 14 -59 42 1 17 5 33 8 38 2 4 35 7 72 7 70 0 110 11 210 55 61 28 96 72 89 115 -6 43 -27 44 -123 7 -143 -55 -160 -59 -190 -35 -22 17 -25 27 -25 79 l0 59 250 0 250 0 0 560 0 560 -1170 0 -1170 0 0 -560z m2310 0 l0 -530 -1140 0 -1140 0 0 530 0 530 1140 0 1140 0 0 -530z m-1895 -577 c-22 -56 -27 -92 -26 -229 l0 -152 78 -113 c61 -91 97 -130 172 -194 51 -44 97 -81 101 -83 4 -1 82 -78 174 -171 107 -107 189 -200 228 -257 71 -105 158 -276 158 -313 0 -14 -14 -58 -32 -98 -38 -88 -48 -93 -203 -100 -88 -4 -118 -2 -148 11 l-39 16 36 42 c20 23 36 48 36 55 0 7 6 13 14 13 29 0 27 22 -14 153 l-42 132 -255 204 -254 204 -115 193 c-96 163 -122 215 -163 335 l-50 143 31 113 31 113 145 0 c133 0 144 -1 137 -17z m132 -34 l78 -50 -60 6 c-101 10 -135 16 -135 26 0 12 29 69 35 69 3 0 40 -23 82 -51z m385 -24 c43 -80 44 -85 21 -85 -16 1 -32 21 -96 128 l-20 34 28 -4 c24 -2 35 -15 67 -73z m878 14 c0 -70 -30 -228 -63 -330 l-23 -71 -67 57 -67 56 -93 -27 c-50 -14 -100 -31 -110 -36 -10 -5 -34 -45 -54 -89 -20 -43 -39 -79 -43 -79 -15 0 -109 149 -190 300 -45 85 -98 183 -117 218 l-35 62 431 0 431 0 0 -61z m332 -83 c-21 -47 -167 -106 -259 -106 -68 0 -67 -1 -57 63 l7 38 23 -22 c23 -21 24 -22 81 -6 32 9 90 30 128 46 76 32 96 29 77 -13z m-1628 -71 l58 -22 -68 -26 c-38 -14 -72 -22 -76 -19 -3 4 -10 29 -13 56 -9 55 -16 54 99 11z m535 -71 c33 -52 61 -97 61 -100 0 -9 -226 151 -229 161 -2 9 61 31 95 34 7 1 39 -42 73 -95z m-529 -62 l64 -19 -46 -48 c-53 -57 -68 -54 -87 20 -19 75 -23 73 69 47z m1575 -13 c4 -5 4 -21 1 -33 -4 -18 -24 -31 -83 -54 -105 -41 -131 -45 -201 -32 l-60 12 15 44 c11 33 19 43 32 40 9 -3 42 -10 73 -16 51 -10 61 -9 100 11 72 37 112 46 123 28z m-445 -76 c62 -53 69 -62 79 -113 11 -53 60 -384 61 -406 0 -5 30 -20 68 -32 55 -18 77 -32 124 -79 37 -37 60 -70 64 -91 8 -37 9 -37 -87 -17 -40 9 -74 13 -77 10 -3 -3 -10 -1 -16 4 -17 13 -106 24 -106 13 0 -6 20 -63 45 -129 25 -65 45 -124 45 -130 0 -28 -71 -13 -168 36 l-97 49 -39 78 c-22 44 -49 102 -61 129 -12 28 -34 75 -48 105 -27 57 -73 202 -105 328 l-19 73 42 86 41 86 90 28 c49 15 91 28 92 28 2 1 35 -25 72 -56z m-433 -100 c38 -54 73 -107 76 -118 3 -11 9 -31 13 -45 5 -17 -33 13 -125 100 -72 68 -128 126 -125 129 7 7 65 29 79 30 6 1 43 -43 82 -96z m-510 5 c-3 -13 -9 -53 -12 -90 -4 -38 -11 -68 -15 -68 -4 0 -31 25 -60 56 l-53 56 59 34 c70 40 88 43 81 12z m157 -230 c-4 -40 -10 -76 -13 -81 -4 -4 -22 8 -39 26 l-33 34 42 46 c22 26 43 47 45 47 2 0 1 -33 -2 -72z m471 -54 c3 -20 24 -81 45 -137 38 -100 39 -101 12 -71 -15 18 -69 79 -120 138 l-93 106 74 0 75 0 7 -36z m-259 -107 c-13 -28 -29 -65 -36 -80 l-14 -28 -42 42 -43 42 21 30 c27 37 95 69 120 56 17 -9 16 -12 -6 -62z m397 -252 c15 -31 27 -57 27 -60 0 -3 -69 18 -129 40 -11 4 -6 15 19 40 19 19 39 35 45 35 6 0 23 -25 38 -55z m-247 18 c-3 -10 -8 -30 -12 -45 -8 -37 -18 -35 -43 6 -26 42 -26 44 2 49 49 9 58 7 53 -10z m754 -68 c0 -8 -4 -15 -10 -15 -5 0 -10 7 -10 15 0 8 5 15 10 15 6 0 10 -7 10 -15z m-99 -122 c-8 -15 -10 -15 -11 -2 0 17 10 32 18 25 2 -3 -1 -13 -7 -23z m-482 -39 c2 -2 -14 -26 -35 -55 l-38 -52 -17 39 c-36 86 -37 83 28 77 32 -3 60 -7 62 -9z m39 -280 c34 -15 61 -32 59 -38 -10 -30 -227 -30 -227 0 0 8 9 33 20 54 l20 40 33 -14 c17 -8 60 -27 95 -42z m-206 -109 c12 -43 -10 -135 -32 -135 -26 0 -48 31 -66 89 -8 29 -14 54 -12 55 9 7 75 24 87 23 8 -1 18 -15 23 -32z m-177 -44 c-60 -83 -123 -79 -82 6 20 42 22 43 69 43 l48 0 -35 -49z"/>
 <path d="M1870 893 c0 -73 35 -111 104 -116 47 -3 40 17 -12 33 -44 14 -48 18 -56 58 -10 41 -36 60 -36 25z"/>
 </g>
<g id="layer4" fill="#66af39" stroke="none">
 <path d="M341 2009 c-13 -48 -19 -85 -13 -91 8 -8 271 17 281 28 3 3 11 29 17 57 6 29 14 60 19 70 7 16 -4 17 -137 17 l-145 0 -22 -81z"/>
 <path d="M1206 2040 c24 -44 31 -50 58 -50 17 0 186 7 376 15 190 8 357 15 373 15 24 0 27 4 27 35 l0 35 -431 0 -430 0 27 -50z"/>
 <path d="M1626 1888 c-171 -10 -312 -20 -314 -22 -7 -7 49 -124 67 -140 15 -13 40 -14 196 -5 99 6 234 16 299 22 l120 12 11 45 c6 25 14 60 18 78 l7 32 -48 -1 c-26 -1 -186 -10 -356 -21z"/>
 <path d="M445 1788 c-55 -5 -102 -11 -104 -14 -7 -6 58 -202 68 -209 7 -4 174 66 206 87 6 3 9 37 7 77 l-4 71 -36 -1 c-20 -1 -82 -6 -137 -11z"/>
 <path d="M625 1517 c-34 -29 -75 -64 -94 -79 l-32 -28 51 -85 c28 -47 55 -83 60 -80 10 6 160 212 160 220 0 13 -66 105 -75 104 -5 0 -37 -23 -70 -52z"/>
 <path d="M1725 1513 c-98 -13 -181 -25 -182 -27 -4 -4 18 -69 26 -79 8 -8 392 31 403 41 4 4 2 26 -5 50 -13 50 7 49 -242 15z"/>
 <path d="M1781 1350 c-95 -21 -177 -42 -181 -47 -8 -7 39 -175 52 -188 7 -7 336 123 344 136 3 5 2 39 -1 74 -6 51 -11 65 -24 64 -9 -1 -94 -18 -190 -39z"/>
 <path d="M872 1348 c-22 -29 -122 -252 -115 -258 55 -48 118 -89 125 -82 10 10 108 266 108 282 0 6 -5 10 -11 10 -6 0 -27 14 -46 30 -37 33 -46 36 -61 18z"/>
 <path d="M1949 1102 c-26 -20 -85 -67 -132 -104 l-87 -67 21 -36 c12 -19 25 -37 30 -40 10 -7 321 214 326 231 2 6 -17 17 -42 24 -25 7 -45 17 -45 21 0 18 -26 7 -71 -29z"/>
 <path d="M1041 1029 c-46 -55 -80 -104 -75 -108 5 -4 37 -29 72 -56 62 -48 63 -48 81 -29 21 23 121 181 121 192 0 12 -94 102 -105 101 -6 0 -48 -45 -94 -100z"/>
 <path d="M2122 999 c-29 -54 -35 -88 -12 -74 4 3 40 -2 80 -10 95 -20 94 -20 86 17 -6 32 -89 128 -111 128 -5 0 -25 -28 -43 -61z"/>
 <path d="M1222 858 l-74 -101 19 -63 c10 -35 22 -64 28 -63 9 0 176 200 183 220 4 11 -61 109 -73 109 -5 -1 -43 -46 -83 -102z"/>
 <path d="M2018 773 c-8 -10 -22 -31 -32 -47 -18 -28 -18 -30 0 -43 22 -16 94 -18 94 -2 0 18 -34 109 -41 109 -3 0 -13 -8 -21 -17z"/>
 <path d="M1320 672 c-106 -63 -115 -70 -113 -96 1 -16 4 -31 7 -33 6 -6 277 64 287 74 10 10 -40 123 -55 123 -6 -1 -63 -31 -126 -68z"/>
 <path d="M1180 489 c0 -6 -9 -24 -20 -39 l-20 -29 45 -31 c41 -28 51 -31 112 -28 36 2 68 8 69 13 3 11 -157 125 -175 125 -6 0 -11 -5 -11 -11z"/>
 </g>

</svg>